<svg id="Layer_1" data-name="Layer 1" xmlns="http://www.w3.org/2000/svg" xmlns:xlink="http://www.w3.org/1999/xlink" viewBox="0 0 242.0751 241.7979"><defs><style>.cls-1{fill:url(#linear-gradient);}</style><linearGradient id="linear-gradient" x1="909.6598" y1="381.2522" x2="1097.2682" y2="228.2704" gradientUnits="userSpaceOnUse"><stop offset="0.3259" stop-color="#9f95f5"/><stop offset="1" stop-color="#17dea3"/></linearGradient></defs><path class="cls-1" d="M998.4037,454.9937c13.4822-9.85,28.252-17.573,42.7563-30.3937,31.86-24.84,49.0852-51.362,49.0926-90.4774.0074-38.7174-19.4436-66.8422-53.041-85.6373-8.9722-5.0193-15.3031-4.748-22.9986,3.5017-21.0646,22.5818-43.2235,44.1457-65.0475,66.0144-6.4282,6.4414-10.4,13-2.3856,20.8263,7.7979,7.6142,14.8262,3.9545,21.2955-2.1289,8.5829-8.0709,16.5612-16.8406,25.569-24.3918,16.7152-14.0123,38.1457-12.6411,52.6493,2.6113,14.1679,14.8993,14.495,37.4612-.4319,52.7959-27.217,27.9606-55.0185,55.3529-82.6782,82.88-1.9086,1.8994-4.6551,4.1837-7.0242,4.1976-17.4546.1028-35.1348,1.307-52.3086-1.0321-18.4191-2.5087-31.6861-19.0469-31.8746-38.0465q-.8044-81.0993-.0017-162.21a39.5389,39.5389,0,0,1,37.64-39.3656c20.5923-1.0172,41.2741-.2218,63.952-.2218-11.16,13.9729-19.4753,25.7619-39.4485,24.8467-37.0522-1.6979-37.7123.2287-37.7,36.779q.0226,65.8647.0425,131.7294c.0334,17.5831,5.88,22.1132,23.4388,23.753,19.68,1.838,34.397-3.4833,47.7952-18.9283,17.7994-20.5185,38.2438-38.7507,57.665-57.85,7.119-7.001,11.5446-14.1227,2.9052-22.9179-8.9792-9.1412-15.9845-3.454-22.7715,3.2425-7.2334,7.137-14.1952,14.5732-21.7281,21.3778-17.7685,16.0508-40.6611,15.2918-56.6-1.5308-14.1257-14.9089-12.6409-36.7272,3.8211-53.3194,26.0578-26.2637,52.1013-52.5446,78.4939-78.469,2.9267-2.8747,8.5731-5.6161,12.14-4.8082,53.7965,12.1838,98.5588,63.2968,91.2139,132.78-5.7945,54.8165-58.1486,104.5271-113.4022,104.8168a3.0151,3.0151,0,0,1-1.0283-.4234C997.6558,453.68,999.1515,456.3079,998.4037,454.9937Z" transform="translate(-871.5514 -213.6193)"/></svg>